<?xml version="1.0" standalone="no"?>
<!DOCTYPE svg PUBLIC "-//W3C//DTD SVG 20010904//EN"
 "http://www.w3.org/TR/2001/REC-SVG-20010904/DTD/svg10.dtd">
<svg version="1.0" xmlns="http://www.w3.org/2000/svg"
 width="511.000000pt" height="140.000000pt" viewBox="0 0 511.000000 140.000000"
 preserveAspectRatio="xMidYMid meet">

<g transform="translate(0.000000,140.000000) scale(0.100000,-0.100000)"
fill="#000000" stroke="none">
<path d="M7 1383 c-4 -3 -7 -316 -7 -695 l0 -688 400 0 400 0 -2 693 -3 692
-391 3 c-215 1 -393 -1 -397 -5z"/>
<path d="M920 695 l0 -698 118 6 c129 6 201 25 312 83 357 187 479 640 260
969 -81 122 -204 224 -331 276 -80 33 -144 46 -266 55 l-93 6 0 -697z"/>
<path d="M1880 695 l0 -695 395 0 395 0 0 695 0 695 -395 0 -395 0 0 -695z"/>
<path d="M2797 1384 c-4 -4 -7 -318 -7 -697 l0 -689 118 4 c198 8 352 76 492
217 60 61 85 95 122 171 58 118 72 179 72 300 -1 159 -52 302 -151 425 -94
115 -251 216 -388 249 -71 17 -247 31 -258 20z"/>
<path d="M4295 1384 c-144 -30 -257 -78 -347 -149 -119 -93 -209 -235 -244
-380 -24 -105 -15 -275 21 -377 63 -181 203 -332 388 -419 116 -54 170 -59
598 -59 l389 0 0 306 0 306 -147 -140 c-82 -76 -218 -205 -303 -286 l-155
-146 -3 330 c-1 182 -1 479 0 660 l3 330 255 -241 c140 -133 276 -262 303
-287 l47 -46 0 302 0 302 -392 -1 c-216 -1 -402 -3 -413 -5z"/>
</g>
</svg>
